HIERARCHY
ROOT Hips
{
	OFFSET 0.000000 0.000000 0.000000 
	CHANNELS 6 Xposition Yposition Zposition Yrotation Zrotation Xrotation 
	JOINT Lumbar
	{
		OFFSET 0.000000 0.000000 0.000000 
		CHANNELS 3 Zrotation Xrotation Yrotation
		JOINT Neck
		{
			OFFSET 0.000000 0.445665 0.000000 
			CHANNELS 3 Zrotation Xrotation Yrotation
			End Site
			{
				OFFSET 0.000000 0.227535 0.000000 
			}
		}
		JOINT RightShoulder
		{
			OFFSET 0.019635 0.377685 0.194865 
			CHANNELS 3 Zrotation Xrotation Yrotation
			JOINT RightElbow
			{
				OFFSET 0.000000 -0.243375 0.000000 
				CHANNELS 2 Zrotation Yrotation
				JOINT RightWrist
				{
					OFFSET 0.000000 -0.264825 0.000000 
					CHANNELS 2 Zrotation Xrotation
					End Site
					{
						OFFSET 0.006600 -0.176220 0.000990 
					}
				}
			}
		}
		JOINT LeftShoulder
		{
			OFFSET 0.019635 0.377685 -0.194865 
			CHANNELS 3 Zrotation Xrotation Yrotation
			JOINT LeftElbow
			{
				OFFSET 0.000000 -0.243375 0.000000 
				CHANNELS 2 Zrotation Yrotation
				JOINT LeftWrist
				{
					OFFSET 0.000000 -0.264825 0.000000 
					CHANNELS 2 Zrotation Xrotation
					End Site
					{
						OFFSET 0.006600 -0.176220 -0.000990 
					}
				}
			}
		}
	}
	JOINT RightHip
	{
		OFFSET 0.052140 -0.069960 0.075570 
		CHANNELS 3 Zrotation Xrotation Yrotation
		JOINT RightKnee
		{
			OFFSET 0.000000 -0.402270 0.000000 
			CHANNELS 1 Zrotation
			JOINT RightAnkle
			{
				OFFSET 0.000000 -0.404085 0.000000 
				CHANNELS 3 Zrotation Xrotation Yrotation
				End Site
				{
					OFFSET 0.204105 -0.089430 0.008415 
				}
			}
		}
	}
	JOINT LeftHip
	{
		OFFSET 0.052140 -0.069960 -0.075570 
		CHANNELS 3 Zrotation Xrotation Yrotation
		JOINT LeftKnee
		{
			OFFSET 0.000000 -0.402270 0.000000 
			CHANNELS 1 Zrotation
			JOINT LeftAnkle
			{
				OFFSET 0.000000 -0.404085 0.000000 
				CHANNELS 3 Zrotation Xrotation Yrotation
				End Site
				{
					OFFSET 0.204105 -0.089430 -0.008415 
				}
			}
		}
	}
}
MOTION
Frames: 29
Frame Time: 0.02
-0 0.95578 0 182.45199 0 -5.11659 8.50938 5.03141 -1.76482 -23.53979 6.84136 2.16469 21.58012 -15.67472 24.63224 10.25233 81.56832 -3.08733 -3.93609 21.88118 1.77768 -21.59958 8.2306 -81.34188 -2.79472 3.39702 -4.94989 7.1599 -4.2423 -7.69323 -10.93605 -2.56752 -9.93805 -8.38223 6.02593 16.99362 -0.63222 -6.17152 2.91855 4.86066
6e-05 0.95578 -6e-05 182.44421 0 -5.11726 8.49376 5.04219 -1.81461 -23.49475 6.82425 2.19714 21.53647 -15.67417 24.64057 10.25142 81.55027 -3.08766 -3.92982 21.82824 1.78296 -21.57095 8.2302 -81.34822 -2.79958 3.38842 -4.95811 7.16435 -4.22758 -7.66928 -10.94433 -2.577 -9.94377 -8.38261 6.02787 16.98228 -0.62695 -6.17531 2.91873 4.87767
0.00013 0.95577 -0.00012 182.43643 0 -5.11792 8.47815 5.05286 -1.86424 -23.45001 6.80724 2.22946 21.49315 -15.67363 24.64882 10.25053 81.53237 -3.08799 -3.92366 21.77574 1.78815 -21.54264 8.22981 -81.35443 -2.80438 3.37994 -4.96624 7.16879 -4.2129 -7.6455 -10.95257 -2.58643 -9.94952 -8.38296 6.02982 16.97108 -0.62176 -6.17908 2.91891 4.89454
0.00019 0.95576 -0.00018 182.4287 0 -5.1185 8.46248 5.06324 -1.91381 -23.40591 6.79039 2.2617 21.45061 -15.67318 24.65679 10.24976 81.51488 -3.08819 -3.91785 21.72423 1.79302 -21.51502 8.22942 -81.36057 -2.8091 3.37173 -4.97416 7.17322 -4.1983 -7.62208 -10.96067 -2.5958 -9.95549 -8.38312 6.03177 16.9603 -0.61686 -6.18278 2.91926 4.91101
0.00026 0.95576 -0.00023 182.42081 0 -5.11945 8.4472 5.07526 -1.96381 -23.35824 6.77263 2.29451 21.40378 -15.67232 24.66619 10.24841 81.49521 -3.08895 -3.91017 21.6672 1.79957 -21.48338 8.22903 -81.36756 -2.81436 3.36194 -4.98327 7.1777 -4.18336 -7.59663 -10.96945 -2.60554 -9.96037 -8.38418 6.03364 16.94723 -0.6105 -6.18682 2.91888 4.92959
0.00032 0.95575 -0.0003 182.41319 0 -5.11964 8.43109 5.08373 -2.01278 -23.31829 6.75686 2.32599 21.36619 -15.67228 24.67259 10.24828 81.48017 -3.08861 -3.90645 21.62206 1.80257 -21.46054 8.22864 -81.37241 -2.81842 3.35557 -4.9898 7.18209 -4.1691 -7.57558 -10.97678 -2.61444 -9.9675 -8.38339 6.03571 16.93909 -0.60717 -6.19015 2.91993 4.9437
0.0004 0.95575 -0.0004 182.40682 0 -5.11745 8.41238 5.08267 -2.06081 -23.29839 6.74588 2.3553 21.35305 -15.67488 24.67025 10.25173 81.47815 -3.08423 -3.91401 21.60852 1.79564 -21.46006 8.22808 -81.37416 -2.8196 3.35837 -4.98949 7.18599 -4.15662 -7.56587 -10.98015 -2.62165 -9.98163 -8.37693 6.03805 16.94426 -0.61275 -6.19143 2.92625 4.94525
0.00048 0.95575 -0.00051 182.40059 0 -5.11454 8.39288 5.07797 -2.10752 -23.28654 6.73699 2.38307 21.34946 -15.67823 24.66495 10.25637 81.48078 -3.07887 -3.92552 21.60722 1.78519 -21.46878 8.22752 -81.37329 -2.8195 3.36468 -4.98653 7.18985 -4.1448 -7.5607 -10.98207 -2.62792 -9.99791 -8.3687 6.04062 16.95449 -0.62128 -6.192 2.93382 4.94234
0.00056 0.95575 -0.00062 182.39397 0 -5.11215 8.37392 5.07478 -2.15366 -23.27179 6.72764 2.41057 21.34217 -15.68102 24.66129 10.26034 81.48115 -3.07463 -3.93501 21.60111 1.7764 -21.47464 8.22705 -81.37173 -2.81969 3.36962 -4.98457 7.19389 -4.13275 -7.554 -10.98463 -2.63421 -10.01268 -8.36163 6.04326 16.96259 -0.6281 -6.19293 2.93991 4.94163
0.00065 0.95574 -0.00072 182.38882 0 -5.10897 8.35418 5.07222 -2.2047 -23.2537 6.71638 2.44199 21.33209 -15.68479 24.65643 10.26484 81.4821 -3.06766 -3.94546 21.59176 1.76723 -21.47516 8.22623 -81.3779 -2.82106 3.37366 -4.98341 7.19725 -4.1205 -7.54516 -10.98724 -2.64217 -10.02966 -8.35302 6.04521 16.9699 -0.63647 -6.1937 2.94967 4.94016
0.00072 0.95574 -0.00083 182.38053 0 -5.10725 8.33592 5.06747 -2.24524 -23.24463 6.70937 2.46507 21.33019 -15.68659 24.65331 10.26853 81.48299 -3.066 -3.95483 21.59215 1.75818 -21.48869 8.22612 -81.3676 -2.81973 3.38032 -4.98001 7.202 -4.10871 -7.54174 -10.98944 -2.64648 -10.04258 -8.34724 6.04862 16.98016 -0.64231 -6.19465 2.95229 4.93923
0.00073 0.95575 -0.00099 182.36455 0 -5.10967 8.32138 5.05743 -2.25688 -23.25727 6.71565 2.46402 21.34765 -15.68381 24.6563 10.26975 81.48217 -3.08047 -3.96056 21.61577 1.74868 -21.53897 8.22812 -81.31048 -2.81071 3.39423 -4.97062 7.21066 -4.09919 -7.55316 -10.99046 -2.64056 -10.04334 -8.34937 6.05623 16.99652 -0.64058 -6.1961 2.9333 4.94083
0.00073 0.95575 -0.00115 182.34528 0 -5.1136 8.30842 5.04531 -2.25804 -23.2789 6.72584 2.45493 21.37314 -15.67894 24.66104 10.2701 81.48119 -3.10009 -3.96505 21.64891 1.73966 -21.60171 8.23086 -81.23727 -2.79912 3.41056 -4.95913 7.22069 -4.08999 -7.56971 -10.99123 -2.63105 -10.03997 -8.35443 6.06528 17.01582 -0.63623 -6.1978 2.90737 4.94309
0.00073 0.95576 -0.00131 182.32678 0 -5.11689 8.29514 5.03428 -2.26413 -23.29725 6.73276 2.45043 21.39559 -15.67417 24.66464 10.27078 81.48054 -3.11653 -3.96991 21.67814 1.73159 -21.65641 8.23306 -81.1727 -2.78907 3.4251 -4.94893 7.23002 -4.0798 -7.58324 -10.99235 -2.62343 -10.0388 -8.35844 6.07349 17.03432 -0.63292 -6.19946 2.88567 4.94512
0.00074 0.95577 -0.00148 182.31111 0 -5.11997 8.28029 5.02265 -2.26944 -23.31263 6.74567 2.44177 21.41597 -15.67248 24.66963 10.27173 81.47896 -3.13646 -3.97565 21.70602 1.71874 -21.72044 8.23586 -81.10235 -2.7774 3.44237 -4.9373 7.23968 -4.07289 -7.59976 -10.99227 -2.61475 -10.0365 -8.36142 6.08242 17.05075 -0.63015 -6.20066 2.85952 4.94686
0.00073 0.95577 -0.00163 182.28905 0 -5.12384 8.26891 5.01162 -2.27391 -23.33605 6.74748 2.44008 21.44225 -15.6645 24.67211 10.27198 81.47923 -3.15038 -3.97931 21.73883 1.71565 -21.76915 8.2379 -81.04038 -2.76851 3.45486 -4.9281 7.24899 -4.05961 -7.61131 -10.99482 -2.60737 -10.03535 -8.36701 6.09026 17.07212 -0.62583 -6.20302 2.8409 4.94923
0.00068 0.95578 -0.00172 182.24776 0 -5.12968 8.26825 5.00439 -2.27857 -23.3808 6.7139 2.45808 21.48446 -15.63463 24.66777 10.26962 81.48469 -3.14621 -3.97659 21.78268 1.74257 -21.76191 8.23519 -81.00444 -2.76793 3.45037 -4.92685 7.25697 -4.02512 -7.60702 -11.00343 -2.60484 -10.04014 -8.38117 6.09407 17.10635 -0.61579 -6.20767 2.84526 4.95483
0.00062 0.95579 -0.0018 182.20067 0 -5.13624 8.27061 4.99751 -2.28277 -23.43292 6.6698 2.48369 21.53195 -15.59958 24.66066 10.26673 81.49201 -3.13585 -3.97198 21.83117 1.7787 -21.7409 8.23228 -80.97771 -2.77023 3.44161 -4.92798 7.2646 -3.9849 -7.59764 -11.01497 -2.60362 -10.04593 -8.39743 6.09686 17.14535 -0.60465 -6.21369 2.8573 4.96076
0.00056 0.9558 -0.00189 182.15771 0 -5.1424 8.27077 4.98943 -2.28717 -23.4809 6.63292 2.50677 21.576 -15.57 24.65461 10.26466 81.49836 -3.12844 -3.96885 21.8776 1.80858 -21.73295 8.23095 -80.94742 -2.77118 3.43682 -4.92757 7.2724 -3.94954 -7.59124 -11.02594 -2.60165 -10.05006 -8.41148 6.10052 17.18228 -0.59538 -6.21961 2.86549 4.96546
0.00049 0.9558 -0.00197 182.10802 0 -5.14894 8.27505 4.98578 -2.29117 -23.53302 6.5856 2.52548 21.62491 -15.52658 24.64989 10.26013 81.5051 -3.12059 -3.96307 21.92404 1.84729 -21.69614 8.22286 -80.91384 -2.77218 3.42335 -4.9291 7.2801 -3.90443 -7.58246 -11.03353 -2.60044 -10.05902 -8.43118 6.10245 17.21924 -0.58027 -6.2232 2.87503 4.97471
0.00046 0.95583 -0.00206 182.07139 0 -5.15484 8.27071 4.97289 -2.29612 -23.57757 6.55782 2.5554 21.66462 -15.51154 24.64121 10.26059 81.51164 -3.11217 -3.96234 21.97158 1.86965 -21.71673 8.22943 -80.88965 -2.77383 3.42713 -4.92711 7.28801 -3.87856 -7.57703 -11.04908 -2.59768 -10.05838 -8.43926 6.10781 17.25684 -0.57708 -6.23214 2.88361 4.97458
0.00053 0.95594 -0.00221 182.06913 0 -5.1587 8.24775 4.93527 -2.30334 -23.60372 6.58367 2.61274 21.67938 -15.56992 24.62668 10.27508 81.51581 -3.10338 -3.97642 22.01946 1.84584 -21.8924 8.27102 -80.88799 -2.77637 3.47772 -4.91511 7.29587 -3.90483 -7.58502 -11.08406 -2.59331 -10.02952 -8.41716 6.12229 17.29837 -0.60732 -6.2539 2.88817 4.94812
0.00065 0.95608 -0.00236 182.08083 0 -5.1619 8.21458 4.88818 -2.31177 -23.62082 6.63011 2.6814 21.68424 -15.65824 24.60758 10.29457 81.52001 -3.09428 -3.9956 22.06838 1.80498 -22.12706 8.32832 -80.89576 -2.77951 3.54613 -4.89932 7.30408 -3.95112 -7.59608 -11.12731 -2.58693 -9.9913 -8.38272 6.14039 17.33972 -0.64962 -6.28129 2.89143 4.91227
0.00076 0.95621 -0.00252 182.08815 0 -5.16548 8.18255 4.84487 -2.31991 -23.63955 6.66898 2.74606 21.69255 -15.73689 24.58747 10.31176 81.52503 -3.08546 -4.01212 22.11802 1.77116 -22.33965 8.38212 -80.90009 -2.78254 3.60761 -4.88525 7.31262 -3.9898 -7.60368 -11.16795 -2.57932 -9.95832 -8.35247 6.15723 17.37897 -0.68618 -6.30717 2.89498 4.88098
0.00078 0.95634 -0.00266 182.08684 0 -5.16878 8.16666 4.80379 -2.32659 -23.67028 6.69984 2.8063 21.70584 -15.79865 24.57968 10.32919 81.52643 -3.07574 -4.02986 22.16346 1.74079 -22.53362 8.42084 -80.90121 -2.78503 3.66408 -4.87179 7.31912 -4.02198 -7.61945 -11.20379 -2.58017 -9.92109 -8.32874 6.1724 17.4277 -0.72358 -6.3287 2.90008 4.84851
0.00103 0.95649 -0.00282 182.10708 0 -5.17246 8.1131 4.75579 -2.33705 -23.67219 6.75254 2.87814 21.70588 -15.90291 24.54597 10.34715 81.53559 -3.06802 -4.04648 22.21699 1.69889 -22.77824 8.49436 -80.91107 -2.78872 3.73519 -4.85548 7.32992 -4.07256 -7.61948 -11.25163 -2.5637 -9.89063 -8.28788 6.19192 17.45647 -0.76235 -6.3606 2.90154 4.8162
0.00182 0.95671 -0.00304 182.18191 0 -5.17769 7.97096 4.69122 -2.35365 -23.60989 6.85945 2.98096 21.67566 -16.11607 24.4349 10.36685 81.56415 -3.06491 -4.0573 22.29984 1.63056 -23.16803 8.66285 -80.94343 -2.79585 3.84289 -4.83763 7.35283 -4.16841 -7.57121 -11.3299 -2.49284 -9.88013 -8.20765 6.2226 17.4307 -0.80007 -6.41971 2.89325 4.78741
0.00285 0.95696 -0.00328 182.27821 0 -5.18325 7.78845 4.61996 -2.37463 -23.51625 6.98793 3.09477 21.6317 -16.37134 24.29918 10.38674 81.60086 -3.06403 -4.06713 22.38945 1.55084 -23.60314 8.86517 -80.98411 -2.80408 3.96456 -4.81587 7.37999 -4.28207 -7.50788 -11.42008 -2.40579 -9.87706 -8.10954 6.25755 17.3846 -0.83918 -6.4891 2.88133 4.75915
0.00382 0.9572 -0.00352 182.36578 0 -5.18841 7.61637 4.55167 -2.39641 -23.42845 7.10715 3.20225 21.59147 -16.60795 24.17931 10.40544 81.63515 -3.06278 -4.07832 22.47111 1.47555 -24.00457 9.05039 -81.02047 -2.81164 4.07962 -4.79255 7.40498 -4.38821 -7.45401 -11.5052 -2.3309 -9.87117 -8.01657 6.29055 17.34761 -0.87875 -6.55374 2.87104 4.72992
